<mxfile host="app.diagrams.net" modified="2023-05-27T13:45:52.281Z" agent="Mozilla/5.0 (Windows NT 10.0; Win64; x64) AppleWebKit/537.36 (KHTML, like Gecko) Chrome/113.0.0.0 Safari/537.36" etag="FFXnnbCQlmQh6qNnQOBd" version="21.3.2" type="device">
  <diagram name="Page-1" id="0GiUhVePZeCxuNAWI0wV">
    <mxGraphModel dx="1050" dy="590" grid="1" gridSize="10" guides="1" tooltips="1" connect="1" arrows="1" fold="1" page="1" pageScale="1" pageWidth="827" pageHeight="1169" math="0" shadow="0">
      <root>
        <mxCell id="0" />
        <mxCell id="1" parent="0" />
        <mxCell id="pGBDYOFRhJozX0b8xYvg-1" value="" style="rounded=0;whiteSpace=wrap;html=1;" vertex="1" parent="1">
          <mxGeometry x="159" y="40" width="510" height="490" as="geometry" />
        </mxCell>
        <mxCell id="pGBDYOFRhJozX0b8xYvg-2" value="" style="rounded=0;whiteSpace=wrap;html=1;" vertex="1" parent="1">
          <mxGeometry x="190" y="190" width="160" height="250" as="geometry" />
        </mxCell>
        <mxCell id="pGBDYOFRhJozX0b8xYvg-3" value="" style="rounded=0;whiteSpace=wrap;html=1;" vertex="1" parent="1">
          <mxGeometry x="470" y="190" width="160" height="250" as="geometry" />
        </mxCell>
        <mxCell id="pGBDYOFRhJozX0b8xYvg-4" value="VPC" style="text;html=1;strokeColor=none;fillColor=none;align=center;verticalAlign=middle;whiteSpace=wrap;rounded=0;" vertex="1" parent="1">
          <mxGeometry x="159" y="40" width="60" height="30" as="geometry" />
        </mxCell>
        <mxCell id="pGBDYOFRhJozX0b8xYvg-5" value="AZa" style="text;html=1;strokeColor=none;fillColor=none;align=center;verticalAlign=middle;whiteSpace=wrap;rounded=0;" vertex="1" parent="1">
          <mxGeometry x="190" y="190" width="60" height="30" as="geometry" />
        </mxCell>
        <mxCell id="pGBDYOFRhJozX0b8xYvg-6" value="AZb" style="text;html=1;strokeColor=none;fillColor=none;align=center;verticalAlign=middle;whiteSpace=wrap;rounded=0;" vertex="1" parent="1">
          <mxGeometry x="470" y="190" width="60" height="30" as="geometry" />
        </mxCell>
        <mxCell id="pGBDYOFRhJozX0b8xYvg-7" value="" style="outlineConnect=0;dashed=0;verticalLabelPosition=bottom;verticalAlign=top;align=center;html=1;shape=mxgraph.aws3.ec2;fillColor=#F58534;gradientColor=none;" vertex="1" parent="1">
          <mxGeometry x="231.75" y="300" width="76.5" height="93" as="geometry" />
        </mxCell>
        <mxCell id="pGBDYOFRhJozX0b8xYvg-8" value="" style="outlineConnect=0;dashed=0;verticalLabelPosition=bottom;verticalAlign=top;align=center;html=1;shape=mxgraph.aws3.ec2;fillColor=#F58534;gradientColor=none;" vertex="1" parent="1">
          <mxGeometry x="511.75" y="300" width="76.5" height="93" as="geometry" />
        </mxCell>
        <mxCell id="pGBDYOFRhJozX0b8xYvg-10" value="private subnet" style="text;html=1;strokeColor=none;fillColor=none;align=center;verticalAlign=middle;whiteSpace=wrap;rounded=0;" vertex="1" parent="1">
          <mxGeometry x="190" y="160" width="90" height="30" as="geometry" />
        </mxCell>
        <mxCell id="pGBDYOFRhJozX0b8xYvg-11" value="public subnet" style="text;html=1;strokeColor=none;fillColor=none;align=center;verticalAlign=middle;whiteSpace=wrap;rounded=0;" vertex="1" parent="1">
          <mxGeometry x="466" y="160" width="90" height="30" as="geometry" />
        </mxCell>
        <mxCell id="pGBDYOFRhJozX0b8xYvg-12" value="" style="endArrow=none;dashed=1;html=1;rounded=0;exitX=1;exitY=0.5;exitDx=0;exitDy=0;" edge="1" parent="1" source="pGBDYOFRhJozX0b8xYvg-2" target="pGBDYOFRhJozX0b8xYvg-3">
          <mxGeometry width="50" height="50" relative="1" as="geometry">
            <mxPoint x="390" y="330" as="sourcePoint" />
            <mxPoint x="440" y="280" as="targetPoint" />
          </mxGeometry>
        </mxCell>
        <mxCell id="pGBDYOFRhJozX0b8xYvg-13" value="" style="outlineConnect=0;dashed=0;verticalLabelPosition=bottom;verticalAlign=top;align=center;html=1;shape=mxgraph.aws3.internet_gateway;fillColor=#F58534;gradientColor=none;" vertex="1" parent="1">
          <mxGeometry x="525.56" y="50" width="48.88" height="51" as="geometry" />
        </mxCell>
        <mxCell id="pGBDYOFRhJozX0b8xYvg-14" value="" style="endArrow=none;html=1;rounded=0;exitX=0.5;exitY=0;exitDx=0;exitDy=0;" edge="1" parent="1" source="pGBDYOFRhJozX0b8xYvg-3" target="pGBDYOFRhJozX0b8xYvg-13">
          <mxGeometry width="50" height="50" relative="1" as="geometry">
            <mxPoint x="410" y="170" as="sourcePoint" />
            <mxPoint x="460" y="120" as="targetPoint" />
          </mxGeometry>
        </mxCell>
        <mxCell id="pGBDYOFRhJozX0b8xYvg-16" value="JumpHost" style="text;html=1;strokeColor=none;fillColor=none;align=center;verticalAlign=middle;whiteSpace=wrap;rounded=0;" vertex="1" parent="1">
          <mxGeometry x="505" y="270" width="90" height="30" as="geometry" />
        </mxCell>
        <mxCell id="pGBDYOFRhJozX0b8xYvg-17" value="WebServer" style="text;html=1;strokeColor=none;fillColor=none;align=center;verticalAlign=middle;whiteSpace=wrap;rounded=0;" vertex="1" parent="1">
          <mxGeometry x="219" y="270" width="90" height="30" as="geometry" />
        </mxCell>
      </root>
    </mxGraphModel>
  </diagram>
</mxfile>
